<svg id="Calque_1" data-name="Calque 1" xmlns="http://www.w3.org/2000/svg" viewBox="0 0 100 100"><defs><style>.cls-1{fill:#3e3e3e;}</style></defs><title>Linux</title><path class="cls-1" d="M82.34,75.26c-2.11-.87-3.85-2.23-3.73-4.86a5.88,5.88,0,0,0-1.87-4.34s1.75-5.72.12-10.45-7-12.31-11.07-18-.61-12.31-4.34-20.77S48,8.86,42.78,12.47,39.17,25,39.42,29.26s.11,7.23-.37,8.33S35.2,42.69,33,46s-3.85,10.32-5.48,13.18a6.55,6.55,0,0,0-.5,5.47,4,4,0,0,0-2,2.24c-.87,1.85-2.6,2.73-5.71,3.34s-3.11,2.62-2.37,4.87,0,3.49-.87,6.34,3.48,3.73,7.71,4.22,9,3.24,12.94,3.73a4.78,4.78,0,0,0,5.22-2.73,54.63,54.63,0,0,1,9.19-1.12,38.55,38.55,0,0,1,9.19,1,6.67,6.67,0,0,0,2.49,2.86,6.56,6.56,0,0,0,7.34-1.36c2.24-2.37,8.21-5.35,11.56-7.21S84.45,76.12,82.34,75.26ZM53.23,20.42c2.14,0,3.85,2.11,3.85,4.72A4.9,4.9,0,0,1,55,29.36l-1-.44a2.72,2.72,0,0,0,1.3-2.47c0-1.47-.91-2.66-2-2.66s-2,1.2-2,2.66a3.3,3.3,0,0,0,.35,1.49c-.66-.26-1.27-.51-1.76-.69a5.71,5.71,0,0,1-.41-2.12C49.38,22.53,51.1,20.42,53.23,20.42Zm-.28,10c1.06.37,2.25,1.06,2.13,1.75s-.69.69-2.13,1.58-4.57,2.82-5.58,2.94-1.57-.44-2.63-1.13-3.07-2.33-2.56-3.2c0,0,1.56-1.2,2.24-1.82s2.45-2.13,3.51-1.93A51.51,51.51,0,0,1,53,30.38Zm-9.61-9.21c1.68,0,3,2,3,4.47a6.43,6.43,0,0,1-.13,1.28,4.13,4.13,0,0,0-1.23.7l-.56.48a3.21,3.21,0,0,0,.25-2c-.22-1.36-1.13-2.33-2-2.19s-1.42,1.36-1.2,2.73,1.13,2.34,2,2.19l.16,0a12.82,12.82,0,0,1-1.24,1.08c-1.23-.57-2.14-2.27-2.14-4.28C40.31,23.17,41.67,21.17,43.35,21.17ZM40.07,84a6,6,0,0,1-2.49,3.08c-1.89.59-7.16-1.69-9.53-2.69s-8.44-1.3-9.24-2.18.4-2.89.7-4.77-.59-3.08-.3-4.38,4.17-1.29,5.66-2.18,1.79-3.48,3-4.17,3.37,1.78,4.27,3.18,4.27,7.35,5.66,8.83S40.46,82.21,40.07,84Zm22-17.32a75.63,75.63,0,0,0-.36,8.08S57.85,80.09,51.87,81s-9,.24-9,.24l-3.36-3.85a2.59,2.59,0,0,0,2.24-3c-.38-2.6-8-6.22-9.32-9.45S32.23,56.21,34,53.47s2.86-8.7,4.6-10.69,3.1-6.21,2.49-8.07c0,0,3.73,4.48,6.34,3.73s8.46-5.1,9.32-4.35,8.33,17.16,9.07,22.38a22.77,22.77,0,0,1-.5,9.19S62.43,64.92,62.06,66.67ZM81.14,78.39c-1.16,1.06-7.62,3.68-9.56,5.71s-4.45,3.67-6,3.18-2.91-2.6-2.22-5.71a39.39,39.39,0,0,0,1.16-8.4c-.1-1.93-.49-4.55,0-4.93a1.66,1.66,0,0,1,1.25-.19s-.38,3.67,1.84,4.64S73,72.3,74,71.32a9.78,9.78,0,0,0,1.65-2.41,2,2,0,0,1,.87,2c-.1,1.54.67,3.77,2.13,4.54S82.3,77.32,81.14,78.39Z"/></svg>