<svg width="40" height="40" viewBox="0 0 40 40" fill="none" xmlns="http://www.w3.org/2000/svg">
<path d="M21 12H21.1001C24.6001 11.3 27 8.2 27 4.7C27 4.5 26.9001 4.3 26.7001 4.2C26.6001 4 26.4001 4 26.2001 4C22.7001 4.7 20.3 7.8 20.3 11.3C20.3 11.7 20.6 12 21 12Z" fill="#303C42"/>
<path d="M33.2 26.1C31 25.2 29.6 23.1 29.6 20.8C29.6 18.7 30.7 16.7 32.5 15.7C32.7 15.6 32.8 15.4 32.8 15.2C32.8 15 32.8 14.8 32.6 14.6C31.2 13 29.2 12 27 12C25.9 12 24.9 12.3 23.9 12.7C23 13.1 22 13.3 21 13.3C20 13.3 19 13.1 18.1 12.7C17.1 12.3 16.1 12 15 12C14.2 12 7 12.3 7 21.3C7 28.7 12.1 36 15 36C16.3 36 17.6 35.7 18.7 35.2C19.4 34.9 20.2 34.7 21 34.7C21.8 34.7 22.5 34.9 23.3 35.2C24.5 35.7 25.8 36 27 36C29.4 36 32.2 31.3 33.7 26.9C33.8 26.7 33.7 26.5 33.7 26.4C33.5 26.2 33.4 26.1 33.2 26.1Z" fill="#303C42"/>
</svg>
