<svg width="32" height="32" viewBox="0 0 32 32" fill="none" xmlns="http://www.w3.org/2000/svg">
<path d="M30.4 10.7C29.7 9.1 28.4 7.3 27.3 6.8C28.1 8.3 28.6 9.9 28.9 11.5C27.1 7.1 24.1999 5.4 21.6999 1.5C21.5999 1.3 21.5 1.1 21.3 0.900002C21.2 0.800002 21.1999 0.699998 21.0999 0.599998C20.9999 0.399998 20.9 0.2 20.9 0C17 2.3 15.6999 6.5 15.5999 8.6C13.9999 8.7 12.5999 9.3 11.2999 10.2C11.1999 10.1 11 10 10.9 9.9C10.5 8.7 10.5 7.4 10.9 6.1C9.49995 6.8 8.19995 7.8 7.19995 9C6.59995 8.2 6.59995 5.7 6.69995 5.1C6.49995 5.2 6.29995 5.3 6.19995 5.4C5.69995 5.8 5.19995 6.2 4.69995 6.7C4.19995 7.2 3.69995 7.8 3.29995 8.4C2.29995 9.8 1.59995 11.4 1.19995 13.1V13.2C1.19995 13.3 1.09995 14 0.99995 14.2C0.89995 14.9 0.799951 15.6 0.699951 16.3V16.4C0.699951 25 7.69995 31.9 16.1999 31.9C23.6999 31.9 30.2 26.5 31.5 19C31.5 18.8 31.4999 18.6 31.5999 18.4C31.6999 15.9 31.3 13.2 30.4 10.7ZM12.5 22.9C12.6 22.9 12.5999 23 12.6999 23C12.5999 23 12.6 22.9 12.5 22.9Z" fill="url(#paint0_linear_732_5921)"/>
<path d="M30.4 10.7C29.7 9.09999 28.4 7.29999 27.3 6.79999C28.1 8.29999 28.6 9.89999 28.9 11.5C30.1 14.9 29.9 18.7 28.4 22C26.6 25.8 22.3 29.7 15.6 29.5C8.29998 29.3 1.89998 23.9 0.699978 16.8C0.499978 15.7 0.699976 15.1 0.799976 14.2C0.699976 14.9 0.599976 15.6 0.599976 16.3V16.4C0.599976 25 7.59998 31.9 16.1 31.9C23.6 31.9 30.1 26.5 31.4 19C31.4 18.8 31.4 18.6 31.5 18.4C31.7 15.9 31.3 13.2 30.4 10.7Z" fill="url(#paint1_radial_732_5921)"/>
<path d="M30.4 10.7C29.7 9.09999 28.4 7.29999 27.3 6.79999C28.1 8.29999 28.6 9.89999 28.9 11.5C30.1 14.9 29.9 18.7 28.4 22C26.6 25.8 22.3 29.7 15.6 29.5C8.29998 29.3 1.89998 23.9 0.699978 16.8C0.499978 15.7 0.699976 15.1 0.799976 14.2C0.699976 14.9 0.599976 15.6 0.599976 16.3V16.4C0.599976 25 7.59998 31.9 16.1 31.9C23.6 31.9 30.1 26.5 31.4 19C31.4 18.8 31.4 18.6 31.5 18.4C31.7 15.9 31.3 13.2 30.4 10.7Z" fill="url(#paint2_radial_732_5921)"/>
<path d="M22.8 12.6C22.9 12.6 22.9 12.6 22.8 12.6C22.5 12 22 11.3 21.5 10.8C16.7 5.99998 20.2 0.299976 20.8 0.0999756C16.9 2.39998 15.6 6.59998 15.5 8.69998C15.7 8.69998 15.9 8.69998 16 8.69998C18.9 8.59998 21.4 10.1 22.8 12.6Z" fill="url(#paint3_radial_732_5921)"/>
<path d="M16 13.5C16 13.9 14.6 15.2 14.1 15.2C9.7 15.2 9 17.9 9 17.9C9.2 20.1 10.8 22 12.7 23C12.8 23 12.9 23.1 13 23.1C13.2 23.2 13.3 23.2 13.5 23.3C14.1 23.5 14.8 23.7 15.5 23.7C23.2 24.1 24.7 14.5 19.1 11.7C20.4 11.5 21.7 11.9 22.8 12.6C21.4 10.2 18.8 8.59998 16 8.59998C15.8 8.59998 15.6 8.59998 15.5 8.59998C13.9 8.69998 12.5 9.29998 11.2 10.2C11.4 10.4 11.7 10.7 12.3 11.2C13.3 12.3 16 13.4 16 13.5Z" fill="url(#paint4_radial_732_5921)"/>
<path d="M16 13.5C16 13.9 14.6 15.2 14.1 15.2C9.7 15.2 9 17.9 9 17.9C9.2 20.1 10.8 22 12.7 23C12.8 23 12.9 23.1 13 23.1C13.2 23.2 13.3 23.2 13.5 23.3C14.1 23.5 14.8 23.7 15.5 23.7C23.2 24.1 24.7 14.5 19.1 11.7C20.4 11.5 21.7 11.9 22.8 12.6C21.4 10.2 18.8 8.59998 16 8.59998C15.8 8.59998 15.6 8.59998 15.5 8.59998C13.9 8.69998 12.5 9.29998 11.2 10.2C11.4 10.4 11.7 10.7 12.3 11.2C13.3 12.3 16 13.4 16 13.5Z" fill="url(#paint5_radial_732_5921)"/>
<path d="M10.5 9.80001C10.6 9.90001 10.7 9.90001 10.8 10C10.4 8.80001 10.4 7.50001 10.8 6.20001C9.39998 6.90001 8.09998 7.90001 7.09998 9.10001C7.09998 9.10001 9.39998 9.00001 10.5 9.80001Z" fill="url(#paint6_radial_732_5921)"/>
<path d="M0.699984 16.9C1.89998 24 8.29998 29.4 15.6 29.6C22.3 29.8 26.6 25.9 28.4 22.1C29.9 18.8 30.1 15.1 28.9 11.6C29.5 15.2 27.6 18.7 24.8 21C19.2 25.5 13.9 23.7 12.8 23C12.7 23 12.6 22.9 12.6 22.9C9.39998 21.3 7.99998 18.4 8.29998 15.9C6.69998 15.9 5.29998 15 4.59998 13.6C6.29998 12.5 8.49998 12.5 10.3 13.4C12.1 14.2 14.2 14.3 16.1 13.6C16.1 13.5 13.4 12.4 12.3 11.4C11.7 10.8 11.5 10.6 11.2 10.4C11.1 10.3 10.9 10.2 10.8 10.1C10.7 9.99999 10.6 9.99999 10.5 9.89999C9.39998 9.19999 7.09998 9.19999 6.99998 9.19999C6.39998 8.39999 6.39998 5.89999 6.49998 5.29999C6.29998 5.39999 6.09998 5.49999 5.99998 5.59999C5.49998 5.99999 4.99998 6.39999 4.49998 6.89999C3.99998 7.39999 3.49998 7.99999 2.99998 8.59999C1.99998 9.99999 1.29998 11.6 0.899985 13.3C0.899985 13.2 0.399984 15.6 0.699984 16.9Z" fill="url(#paint7_radial_732_5921)"/>
<path d="M21.5 10.8C22.1 11.4 22.6 12 22.9 12.7C23 12.8 23.1 12.8 23.1 12.9C26.6 16.1 24.8 20.7 24.6 21C27.5 18.6 29.3 15.2 28.7 11.6C26.9 7.19998 24 5.49998 21.5 1.59998C21.4 1.39998 21.3 1.19998 21.1 0.999977C21 0.899977 21 0.799978 20.9 0.699978C20.8 0.499978 20.7 0.299976 20.7 0.0999756C20.2 0.299976 16.7 5.89998 21.5 10.8Z" fill="url(#paint8_radial_732_5921)"/>
<path d="M23.1999 12.8C23.0999 12.7 23.0999 12.7 22.9999 12.6C22.9999 12.6 22.8999 12.6 22.8999 12.5C21.7999 11.7 20.4999 11.4 19.1999 11.6C24.7999 14.4 23.2999 24 15.5999 23.6C14.8999 23.6 14.1999 23.4 13.5999 23.2C13.3999 23.1 13.2999 23.1 13.0999 23C12.9999 23 12.8999 22.9 12.7999 22.9C13.8999 23.6 19.1999 25.4 24.7999 20.9C24.7999 20.7 26.6999 16.1 23.1999 12.8Z" fill="url(#paint9_radial_732_5921)"/>
<path d="M9.09998 17.9C9.09998 17.9 9.79997 15.2 14.2 15.2C14.7 15.2 16 13.9 16.1 13.5C14.2 14.2 12.1 14.1 10.3 13.3C8.49998 12.4 6.29998 12.5 4.59998 13.5C5.29998 14.9 6.69998 15.8 8.29998 15.8C7.99998 18.3 9.39998 21.3 12.6 22.8C12.7 22.8 12.7 22.9 12.8 22.9C10.8 22 9.29998 20.2 9.09998 17.9Z" fill="url(#paint10_radial_732_5921)"/>
<path d="M30.4 10.7C29.7 9.1 28.4 7.3 27.3 6.8C28.1 8.3 28.6 9.9 28.9 11.5C27.1 7.1 24.1999 5.4 21.6999 1.5C21.5999 1.3 21.5 1.1 21.3 0.900002C21.2 0.800002 21.1999 0.699998 21.0999 0.599998C20.9999 0.399998 20.9 0.2 20.9 0C17 2.3 15.6999 6.5 15.5999 8.6C15.7999 8.6 15.9999 8.6 16.0999 8.6C18.8999 8.6 21.5 10.1 22.9 12.6C21.8 11.8 20.4999 11.5 19.1999 11.7C24.7999 14.5 23.2999 24.1 15.5999 23.7C14.8999 23.7 14.1999 23.5 13.5999 23.3C13.3999 23.2 13.2999 23.2 13.0999 23.1C12.9999 23.1 12.9 23 12.8 23C12.7 23 12.5999 22.9 12.5999 22.9C12.6999 22.9 12.7 23 12.8 23C10.9 22 9.29995 20.2 9.09995 17.9C9.09995 17.9 9.79995 15.2 14.1999 15.2C14.6999 15.2 15.9999 13.9 16.0999 13.5C16.0999 13.4 13.4 12.3 12.3 11.3C11.7 10.7 11.5 10.5 11.2 10.3C11.1 10.2 10.9 10.1 10.7999 10C10.4 8.8 10.4 7.5 10.7999 6.2C9.39995 6.9 8.09995 7.9 7.09995 9.1C6.49995 8.3 6.49995 5.8 6.59995 5.2C6.39995 5.3 6.19995 5.4 6.09995 5.5C5.59995 5.9 5.09995 6.3 4.59995 6.8C4.09995 7.3 3.59995 7.9 3.19995 8.5C2.19995 9.9 1.49995 11.5 1.09995 13.2V13.3C1.09995 13.4 0.899952 14.1 0.899952 14.3C0.799952 15 0.699951 15.7 0.699951 16.5V16.6C0.699951 25.2 7.69995 32.1 16.1999 32.1C23.6999 32.1 30.2 26.7 31.5 19.2C31.5 19 31.4999 18.8 31.5999 18.6C31.6999 15.9 31.3 13.2 30.4 10.7Z" fill="url(#paint11_linear_732_5921)"/>
<defs>
<linearGradient id="paint0_linear_732_5921" x1="28.3136" y1="4.9667" x2="2.56745" y2="29.807" gradientUnits="userSpaceOnUse">
<stop offset="0.048" stop-color="#FFF44F"/>
<stop offset="0.111" stop-color="#FFE847"/>
<stop offset="0.225" stop-color="#FFC830"/>
<stop offset="0.368" stop-color="#FF980E"/>
<stop offset="0.401" stop-color="#FF8B16"/>
<stop offset="0.462" stop-color="#FF672A"/>
<stop offset="0.534" stop-color="#FF3647"/>
<stop offset="0.705" stop-color="#E31587"/>
</linearGradient>
<radialGradient id="paint1_radial_732_5921" cx="0" cy="0" r="1" gradientUnits="userSpaceOnUse" gradientTransform="translate(27.126 3.56249) scale(32.3321)">
<stop offset="0.129" stop-color="#FFBD4F"/>
<stop offset="0.186" stop-color="#FFAC31"/>
<stop offset="0.247" stop-color="#FF9D17"/>
<stop offset="0.283" stop-color="#FF980E"/>
<stop offset="0.403" stop-color="#FF563B"/>
<stop offset="0.467" stop-color="#FF3750"/>
<stop offset="0.71" stop-color="#F5156C"/>
<stop offset="0.782" stop-color="#EB0878"/>
<stop offset="0.86" stop-color="#E50080"/>
</radialGradient>
<radialGradient id="paint2_radial_732_5921" cx="0" cy="0" r="1" gradientUnits="userSpaceOnUse" gradientTransform="translate(15.3115 16.7813) scale(32.3321)">
<stop offset="0.3" stop-color="#960E18"/>
<stop offset="0.351" stop-color="#B11927" stop-opacity="0.74"/>
<stop offset="0.435" stop-color="#DB293D" stop-opacity="0.343"/>
<stop offset="0.497" stop-color="#F5334B" stop-opacity="0.094"/>
<stop offset="0.53" stop-color="#FF3750" stop-opacity="0"/>
</radialGradient>
<radialGradient id="paint3_radial_732_5921" cx="0" cy="0" r="1" gradientUnits="userSpaceOnUse" gradientTransform="translate(19.21 -3.77442) scale(23.4226)">
<stop offset="0.132" stop-color="#FFF44F"/>
<stop offset="0.252" stop-color="#FFDC3E"/>
<stop offset="0.506" stop-color="#FF9D12"/>
<stop offset="0.526" stop-color="#FF980E"/>
</radialGradient>
<radialGradient id="paint4_radial_732_5921" cx="0" cy="0" r="1" gradientUnits="userSpaceOnUse" gradientTransform="translate(11.7354 25.2266) scale(15.3947)">
<stop offset="0.353" stop-color="#3A8EE6"/>
<stop offset="0.472" stop-color="#5C79F0"/>
<stop offset="0.669" stop-color="#9059FF"/>
<stop offset="1" stop-color="#C139E6"/>
</radialGradient>
<radialGradient id="paint5_radial_732_5921" cx="0" cy="0" r="1" gradientUnits="userSpaceOnUse" gradientTransform="translate(17.079 14.1307) rotate(-13.5916) scale(8.16224 9.55594)">
<stop offset="0.206" stop-color="#9059FF" stop-opacity="0"/>
<stop offset="0.278" stop-color="#8C4FF3" stop-opacity="0.064"/>
<stop offset="0.747" stop-color="#7716A8" stop-opacity="0.45"/>
<stop offset="0.975" stop-color="#6E008B" stop-opacity="0.6"/>
</radialGradient>
<radialGradient id="paint6_radial_732_5921" cx="0" cy="0" r="1" gradientUnits="userSpaceOnUse" gradientTransform="translate(14.9033 2.24031) scale(11.075)">
<stop stop-color="#FFE226"/>
<stop offset="0.121" stop-color="#FFDB27"/>
<stop offset="0.295" stop-color="#FFC82A"/>
<stop offset="0.502" stop-color="#FFA930"/>
<stop offset="0.732" stop-color="#FF7E37"/>
<stop offset="0.792" stop-color="#FF7139"/>
</radialGradient>
<radialGradient id="paint7_radial_732_5921" cx="0" cy="0" r="1" gradientUnits="userSpaceOnUse" gradientTransform="translate(23.6089 -4.78511) scale(47.2519)">
<stop offset="0.113" stop-color="#FFF44F"/>
<stop offset="0.456" stop-color="#FF980E"/>
<stop offset="0.622" stop-color="#FF5634"/>
<stop offset="0.716" stop-color="#FF3647"/>
<stop offset="0.904" stop-color="#E31587"/>
</radialGradient>
<radialGradient id="paint8_radial_732_5921" cx="0" cy="0" r="1" gradientUnits="userSpaceOnUse" gradientTransform="translate(19.626 -2.15794) rotate(83.976) scale(34.6321 22.7287)">
<stop stop-color="#FFF44F"/>
<stop offset="0.06" stop-color="#FFE847"/>
<stop offset="0.168" stop-color="#FFC830"/>
<stop offset="0.304" stop-color="#FF980E"/>
<stop offset="0.356" stop-color="#FF8B16"/>
<stop offset="0.455" stop-color="#FF672A"/>
<stop offset="0.57" stop-color="#FF3647"/>
<stop offset="0.737" stop-color="#E31587"/>
</radialGradient>
<radialGradient id="paint9_radial_732_5921" cx="0" cy="0" r="1" gradientUnits="userSpaceOnUse" gradientTransform="translate(14.6425 6.34178) scale(29.5002)">
<stop offset="0.137" stop-color="#FFF44F"/>
<stop offset="0.48" stop-color="#FF980E"/>
<stop offset="0.592" stop-color="#FF5634"/>
<stop offset="0.655" stop-color="#FF3647"/>
<stop offset="0.904" stop-color="#E31587"/>
</radialGradient>
<radialGradient id="paint10_radial_732_5921" cx="0" cy="0" r="1" gradientUnits="userSpaceOnUse" gradientTransform="translate(22.4297 8.06838) scale(32.2877)">
<stop offset="0.094" stop-color="#FFF44F"/>
<stop offset="0.231" stop-color="#FFE141"/>
<stop offset="0.509" stop-color="#FFAF1E"/>
<stop offset="0.626" stop-color="#FF980E"/>
</radialGradient>
<linearGradient id="paint11_linear_732_5921" x1="28.0046" y1="4.8343" x2="6.09725" y2="26.7413" gradientUnits="userSpaceOnUse">
<stop offset="0.167" stop-color="#FFF44F" stop-opacity="0.8"/>
<stop offset="0.266" stop-color="#FFF44F" stop-opacity="0.634"/>
<stop offset="0.489" stop-color="#FFF44F" stop-opacity="0.217"/>
<stop offset="0.6" stop-color="#FFF44F" stop-opacity="0"/>
</linearGradient>
</defs>
</svg>
