<?xml version="1.0" encoding="utf-8"?>
<!-- Generator: Adobe Illustrator 21.1.0, SVG Export Plug-In . SVG Version: 6.00 Build 0)  -->
<svg version="1.1" id="Calque_1" xmlns="http://www.w3.org/2000/svg" xmlns:xlink="http://www.w3.org/1999/xlink" x="0px" y="0px"
	 viewBox="0 0 100 100" style="enable-background:new 0 0 100 100;" xml:space="preserve">
<style type="text/css">
	.st0{fill:#3E3E3E;}
</style>
<title>Apple</title>
<g>
	<path class="st0" d="M20.3,40.7c1.5-0.2,2.8-0.9,3.7-2.1c0.9-1,1.4-2.3,1.5-3.6c0-0.2,0.1-0.8,0-1c-0.1-0.1-0.6,0-0.8,0
		c-0.6,0.1-1.2,0.4-1.7,0.7c-1.1,0.6-2,1.5-2.6,2.6c-0.3,0.6-0.6,1.2-0.7,1.9c-0.1,0.3-0.1,0.6-0.1,1c0,0.1,0,0.4,0.1,0.4
		S20.2,40.7,20.3,40.7z"/>
	<path class="st0" d="M31.6,55.3c-0.1-0.1-0.3-0.1-0.4-0.2c-0.3-0.1-0.5-0.3-0.7-0.5c-1.7-1.2-2.7-3.1-2.7-5.2
		c0-2.3,1.2-4.3,3.1-5.5c-0.4-0.6-0.9-1.1-1.4-1.5c-1.8-1.3-4-1.7-6.1-1.1c-0.7,0.2-1.3,0.5-2,0.7c-0.4,0.2-0.9,0.3-1.4,0.4
		c-0.6-0.1-1.1-0.2-1.6-0.5c-0.7-0.3-1.3-0.5-2-0.7c-2.8-0.6-5.6,1.1-7,3.4c-1.4,2.4-1.5,5.3-1,8c0.5,2.6,1.6,5.1,3.1,7.2
		c0.8,1.1,1.7,2.4,3,2.9c1.2,0.5,2.3,0,3.4-0.4c1.2-0.6,2.5-0.7,3.8-0.4c1.1,0.3,2.1,1,3.3,1c1.4,0,2.5-0.8,3.4-1.8
		c1-1.2,1.9-2.5,2.5-3.9c0.2-0.5,0.5-1,0.6-1.6C31.5,55.6,31.6,55.4,31.6,55.3z"/>
</g>
<g>
	<path class="st0" d="M38,36.1c0-0.7,0.5-1.2,1.2-1.2s1.2,0.5,1.2,1.2s-0.5,1.2-1.2,1.2S38,36.7,38,36.1z M38.4,42.3h1.5v20.3h-1.5
		V42.3z"/>
	<path class="st0" d="M68.8,48.5c0,8.9-4.9,14.5-12.5,14.5c-7.7,0-12.5-5.6-12.5-14.5c0-8.9,4.9-14.5,12.5-14.5S68.8,39.6,68.8,48.5
		z M45.3,48.5c0,8,4.3,13,11,13c6.7,0,11-5.1,11-13c0-8-4.3-13-11-13C49.5,35.4,45.3,40.5,45.3,48.5z"/>
	<path class="st0" d="M72.7,55c0.2,3.8,3.8,6.5,8.7,6.5c4.8,0,8.1-2.7,8.1-6.4c0-2.9-2-4.6-6.7-5.8l-3.3-0.8c-5.2-1.3-7.6-3.4-7.6-7
		c0-4.4,4.1-7.5,9.2-7.5c5.3,0,9.3,3.1,9.4,7.3h-1.5c-0.2-3.4-3.5-5.8-7.9-5.8c-4.2,0-7.6,2.5-7.6,6.1c0,2.8,2.1,4.4,6.6,5.6
		l3.1,0.8c5.4,1.3,7.9,3.4,7.9,7.2c0,4.7-3.9,7.9-9.8,7.9c-5.8,0-9.9-3.3-10.1-7.9H72.7z"/>
</g>
</svg>
