<svg width="40" height="40" viewBox="0 0 40 40" fill="none" xmlns="http://www.w3.org/2000/svg">
<path d="M9 13.0598C7.9 13.0598 7 13.9598 7 15.0598V23.0598C7 24.1598 7.9 25.0598 9 25.0598C10.1 25.0598 11 24.1598 11 23.0598V15.0598C11 13.9598 10.1 13.0598 9 13.0598Z" fill="#85C808"/>
<path d="M31 13.0598C29.9 13.0598 29 13.9598 29 15.0598V23.0598C29 24.1598 29.9 25.0598 31 25.0598C32.1 25.0598 33 24.1598 33 23.0598V15.0598C33 13.9598 32.1 13.0598 31 13.0598Z" fill="#85C808"/>
<path d="M12 29.0598H14V34.0598C14 35.1598 14.9 36.0598 16 36.0598C17.1 36.0598 18 35.1598 18 34.0598V29.0598H22V34.0598C22 35.1598 22.9 36.0598 24 36.0598C25.1 36.0598 26 35.1598 26 34.0598V29.0598H28V14.0598H12V29.0598Z" fill="#85C808"/>
<path d="M23 10.0598C22.4 10.0598 22 9.65981 22 9.05981C22 8.45981 22.4 8.05981 23 8.05981C23.6 8.05981 24 8.45981 24 9.05981C24 9.55981 23.6 10.0598 23 10.0598ZM17 10.0598C16.4 10.0598 16 9.65981 16 9.05981C16 8.45981 16.4 8.05981 17 8.05981C17.6 8.05981 18 8.45981 18 9.05981C18 9.55981 17.6 10.0598 17 10.0598ZM24.7 6.55981L25.7 4.75981C25.8 4.55981 25.8 4.25981 25.5 4.05981C25.3 3.95981 25 3.95981 24.8 4.25981L23.8 5.95981C22.6 5.35981 21.3 4.95981 19.9 4.95981C18.5 4.95981 17.2 5.35981 16 5.95981L15 4.25981C14.9 4.05981 14.6 3.95981 14.3 4.05981C14.1 4.15981 14 4.45981 14.1 4.75981L15.1 6.55981C13.3 8.05981 12 10.3598 12 13.0598H28C28 10.3598 26.7 8.05981 24.7 6.55981Z" fill="#85C808"/>
</svg>
