<svg width="30" height="32" viewBox="0 0 30 32" fill="none" xmlns="http://www.w3.org/2000/svg">
<path d="M20.3 11.1C20.2 9.8 19.9 8.5 19.6 7.3C19.2 6.1 18.7 5.1 17.9 4.5C17.1 3.8 16.2 3.5 15 3.5C13.8 3.5 12.9 3.8 12.1 4.5C11.4 5.1 10.8 6.1 10.5 7.3C10.1 8.5 9.9 9.8 9.8 11.1C9.7 12.3 9.6 13.9 9.6 15.7C9.6 16.8 9.6 17.8 9.7 18.5C9.7 19.3 9.8 20.2 9.9 21.3C10 22.4 10.2 23.3 10.4 24.1C10.6 24.9 10.9 25.6 11.3 26.3C11.7 27 12.2 27.6 12.8 28C13.4 28.4 14.1 28.6 15 28.6C15.8 28.6 16.6 28.4 17.2 28C17.8 27.6 18.4 27.1 18.8 26.3C19.2 25.6 19.5 24.8 19.8 24.1C20.1 23.4 20.2 22.4 20.4 21.3C20.5 20.2 20.6 19.2 20.6 18.5C20.6 17.7 20.6 16.8 20.6 15.7C20.5 13.9 20.4 12.4 20.3 11.1ZM25.7 4.4C28.5 7.3 30 11.2 30 15.9C30 20.2 28.6 24 25.7 27.2C22.9 30.4 19.3 32 14.9 32C10.6 32 7 30.4 4.2 27.2C1.4 24 0 20.2 0 15.9C0 11.1 1.4 7.3 4.2 4.4C7 1.5 10.6 0 15 0C19.3 0 22.9 1.5 25.7 4.4Z" fill="#EA3939"/>
</svg>
