<svg width="40" height="40" viewBox="0 0 40 40" fill="none" xmlns="http://www.w3.org/2000/svg">
<path d="M35 12.1C35 14.3 35 16.5 35 18.7C35 19 34.9 19.1 34.6 19.1C34.6 19.1 34.5 19.1 34.4 19.1C30.5 19.1 26.7 19.1 22.8 19.2C21.5 19.2 20.3 19.2 19 19.2C18.7 19.2 18.6 19.1 18.6 18.8C18.6 15.1 18.6 11.4 18.6 7.7C18.6 7.4 18.7 7.2 19 7.2C20.4 7 21.8 6.8 23.2 6.6C25.1 6.3 27.1 6 29 5.8C30.8 5.5 32.7 5.3 34.5 5C34.8 5 34.8 5.1 34.8 5.3C35 7.6 35 9.8 35 12.1Z" fill="#00ACEE"/>
<path d="M17.1 13.3C17.1 11.5 17.1 9.7 17.1 7.9C17.1 7.6 17 7.6 16.8 7.6C16.6 7.6 16.5 7.7 16.3 7.7C15.9 7.7 15.5 7.8 15.1 7.9C14.3 8 13.5 8.1 12.7 8.2C12.2 8.3 11.7 8.3 11.2 8.5C11.1 8.5 11 8.6 11 8.5C10.7 8.4 10.5 8.5 10.2 8.5C9.6 8.8 9 8.8 8.4 8.9C7.9 9 7.4 9.1 6.9 9.1C6.4 9.1 6 9.3 5.6 9.3C5.2 9.3 5.2 9.3 5.2 9.7C5.2 12.7 5.2 15.7 5.2 18.7C5.2 19.1 5.2 19.1 5.7 19.1C7.7 19.1 9.7 19 11.7 19C13.4 19 15 19 16.7 19C17.2 19 17.2 19 17.2 18.5C17.1 16.8 17.1 15.1 17.1 13.3ZM17.3 13.4C17.3 15.2 17.3 17.1 17.3 18.9C17.3 19.3 17.3 19.3 16.9 19.3C16.1 19.3 15.4 19.3 14.6 19.3C11.5 19.3 8.5 19.3 5.5 19.4C5.1 19.4 5.1 19.4 5.1 19C5 15.8 5 12.7 5 9.6C5 9.2 5 9.2 5.4 9.1C6.5 8.9 7.6 8.8 8.7 8.6C9.5 8.5 10.4 8.4 11.2 8.3C12.9 8.1 14.6 7.8 16.3 7.6C16.5 7.6 16.8 7.5 17 7.5C17.1 7.5 17.2 7.5 17.2 7.7C17.2 7.8 17.2 7.9 17.2 8C17.3 9.8 17.3 11.6 17.3 13.4Z" fill="#35ABD5"/>
<path d="M17.1 26.5C17.1 24.7 17.1 23 17.1 21.3C17.1 20.8 16.9 20.8 16.6 20.8C16.1 20.8 15.6 20.8 15.1 20.8C12.8 20.7 10.5 20.8 8.2 20.7C7.3 20.7 6.5 20.7 5.6 20.7C5.2 20.7 5.2 20.7 5.2 21.1C5.2 24.1 5.2 27.1 5.2 30.1C5.2 30.5 5.3 30.5 5.7 30.6C6.3 30.7 6.9 30.7 7.5 30.8C8.3 30.9 9 31 9.8 31.1C10.2 31.2 10.6 31.2 11 31.3C11.5 31.4 12.1 31.5 12.6 31.5C13.2 31.6 13.8 31.7 14.4 31.7C15.2 31.8 16 31.9 16.7 32C16.9 32.1 17.1 32 17.1 31.7C17.1 30.1 17.1 28.3 17.1 26.5ZM17.3 26.5C17.3 28.3 17.3 30.2 17.3 32C17.3 32.3 17.2 32.4 16.9 32.3C16 32.2 15.1 32 14.2 31.9C13.3 31.8 12.3 31.7 11.4 31.5C10.1 31.3 8.7 31.1 7.4 30.9C6.7 30.8 6 30.7 5.3 30.6C5.1 30.8 5 30.7 5 30.4C5 27.2 5 24 5 20.9C5 20.6 5.1 20.5 5.4 20.6C5.5 20.6 5.7 20.6 5.8 20.6C9.5 20.6 13.3 20.6 17 20.7C17.3 20.7 17.3 20.8 17.3 21C17.3 22.8 17.3 24.7 17.3 26.5Z" fill="#35ABD5"/>
<path d="M34.9 27.8C34.9 26.1 34.9 24.4 34.9 22.7C34.9 22.2 34.9 21.7 34.9 21.2C34.9 21.1 34.9 20.9 34.7 20.9C34.5 20.9 34.3 20.9 34.1 20.8C31.9 20.8 29.7 20.8 27.6 20.8C24.8 20.7 22.1 20.8 19.3 20.8C18.9 20.8 18.9 20.8 18.9 21.2C18.9 24.7 18.9 28.1 18.9 31.6C18.9 31.8 18.9 32.1 18.9 32.4C18.9 32.6 19 32.6 19.2 32.7C19.5 32.7 19.8 32.8 20.1 32.8C20.6 32.8 21.1 33 21.6 33C22.1 33 22.6 33.1 23.1 33.2C23.7 33.3 24.3 33.4 24.9 33.5C25.6 33.5 26.2 33.7 26.9 33.7C27.5 33.7 28.1 33.9 28.7 34C29.4 34.1 30.2 34.2 30.9 34.3C31.5 34.4 32 34.4 32.6 34.5C33.2 34.6 33.8 34.7 34.4 34.7C34.4 34.7 34.5 34.7 34.5 34.8C34.9 35 35 34.9 35 34.5C34.9 32.1 34.9 29.9 34.9 27.8ZM35 27.8C35 30 35 32.2 35 34.4C35 34.9 35 34.9 34.5 34.8C33.3 34.6 32.2 34.5 31 34.3C29.4 34.1 27.8 33.9 26.1 33.6C24.6 33.4 23 33.2 21.5 32.9C20.6 32.8 19.8 32.7 18.9 32.5C18.6 32.5 18.6 32.3 18.6 32.1C18.6 30.1 18.6 28 18.6 26C18.6 24.3 18.6 22.5 18.6 20.8C18.6 20.4 18.6 20.4 19 20.4C24.3 20.7 29.5 20.7 34.7 20.7C35 20.7 35 20.8 35 21C35 23.3 35 25.6 35 27.8Z" fill="#35ABD5"/>
<path d="M17.1 13.3C17.1 15.1 17.1 16.8 17.1 18.5C17.1 19 17.1 19 16.6 19C14.9 19 13.3 19 11.6 19C9.59998 19 7.59998 19.1 5.59998 19.1C5.19998 19.1 5.09998 19.1 5.09998 18.7C5.09998 15.7 5.09998 12.7 5.09998 9.69995C5.09998 9.29995 5.09998 9.19995 5.49998 9.29995C5.89998 9.29995 6.29998 9.09995 6.69998 9.09995C7.19998 9.09995 7.69998 8.99995 8.19998 8.89995C8.99998 8.79995 9.59998 8.79995 10.2 8.59995C10.4 8.49995 10.7 8.39995 11 8.59995C11.1 8.59995 11.2 8.59995 11.2 8.59995C11.7 8.39995 12.2 8.39995 12.7 8.29995C13.5 8.19995 14.3 8.09995 15.1 7.99995C15.5 7.89995 15.9 7.89995 16.3 7.79995C16.5 7.79995 16.7 7.69995 16.8 7.69995C17 7.69995 17.1 7.69995 17.1 7.99995C17.1 9.69995 17.1 11.5 17.1 13.3Z" fill="#00ACEE"/>
<path d="M17.1 26.5C17.1 28.3 17.1 30.1 17.1 31.8C17.1 32.1 17 32.2 16.7 32.1C15.9 31.9 15.1 31.8 14.4 31.8C13.8 31.7 13.2 31.7 12.6 31.6C12.1 31.5 11.5 31.5 11 31.4C10.6 31.3 10.2 31.3 9.79995 31.2C8.99995 31.1 8.29995 31 7.49995 30.9C6.89995 30.8 6.29995 30.7 5.69995 30.7C5.29995 30.7 5.19995 30.6 5.19995 30.2C5.19995 27.2 5.19995 24.2 5.19995 21.2C5.19995 20.8 5.19995 20.8 5.59995 20.8C6.49995 20.8 7.29995 20.8 8.19995 20.8C10.5 20.9 12.8 20.8 15.1 20.9C15.6 20.9 16.1 20.9 16.6 20.9C16.9 20.9 17.1 21 17.1 21.4C17.1 23 17.1 24.8 17.1 26.5Z" fill="#00ACEE"/>
<path d="M34.9 27.8C34.9 30 34.9 32.1 34.9 34.3C34.9 34.7 34.7 34.8 34.4 34.6L34.3 34.5C33.7 34.5 33.1 34.4 32.5 34.3C31.9 34.2 31.4 34.2 30.8 34.1C30.1 34 29.3 33.9 28.6 33.8C28 33.7 27.4 33.6 26.8 33.5C26.1 33.5 25.5 33.3 24.8 33.3C24.2 33.3 23.6 33.1 23 33C22.5 32.9 22 32.9 21.5 32.8C21 32.8 20.5 32.6 20 32.6C19.7 32.6 19.4 32.5 19.1 32.5C18.9 32.5 18.8 32.4 18.8 32.2C18.8 32 18.8 31.7 18.8 31.4C18.8 27.9 18.8 24.5 18.8 21C18.8 20.6 18.8 20.6 19.2 20.6C22 20.6 24.7 20.6 27.5 20.6C29.7 20.6 31.9 20.6 34 20.6C34.2 20.6 34.4 20.6 34.6 20.7C34.8 20.7 34.8 20.8 34.8 21C34.8 21.5 34.8 22 34.8 22.5C34.9 24.3 34.9 26 34.9 27.8Z" fill="#00ACEE"/>
</svg>
